<?xml version="1.0" encoding="utf-8"?>
<!-- Generator: Adobe Illustrator 19.0.0, SVG Export Plug-In . SVG Version: 6.00 Build 0)  -->
<svg version="1.1" id="Layer_1" xmlns="http://www.w3.org/2000/svg" xmlns:xlink="http://www.w3.org/1999/xlink" x="0px" y="0px"
	 viewBox="0 0 132.3 227" style="enable-background:new 0 0 132.3 227;" xml:space="preserve">
<style type="text/css">
	.st0{fill:#FAFBFC;}
	.st1{fill:#1F5C78;}
	.st2{fill:#3B87C7;}
	.st3{fill:#3079AA;}
	.st4{fill:#4B9DD6;}
	.st5{fill:#276688;}
</style>
<g>
	<g>
		<g>
			<rect x="84.7" y="4.9" class="st0" width="5.1" height="43.3"/>
		</g>
		<g>
			<rect x="43.2" y="4.9" class="st0" width="5.1" height="43.3"/>
		</g>
	</g>
	<path class="st1" d="M107.9,45.7H25.1c-0.5,0-0.9,0.4-0.9,0.9v1.6h84.7v-1.6C108.8,46.1,108.4,45.7,107.9,45.7z"/>
	<g>
		<path class="st2" d="M111,48.2H22C10.5,48.2,1.2,57.5,1.2,69v129.6c0,11.5,9.3,20.8,20.8,20.8H111c11.5,0,20.8-9.3,20.8-20.8V69
			C131.8,57.5,122.5,48.2,111,48.2z"/>
		<path class="st3" d="M21.9,68.8c-3.2,0-5.8,2.6-5.8,5.8v118.5c0,3.2,2.6,5.8,5.8,5.8c3.2,0,5.8-2.6,5.8-5.8V74.5
			C27.7,71.3,25.1,68.8,21.9,68.8z"/>
		<path class="st3" d="M51.6,68.8c-3.2,0-5.8,2.6-5.8,5.8v118.5c0,3.2,2.6,5.8,5.8,5.8c3.2,0,5.8-2.6,5.8-5.8V74.5
			C57.4,71.3,54.8,68.8,51.6,68.8z"/>
		<path class="st3" d="M81.4,68.8c-3.2,0-5.8,2.6-5.8,5.8v118.5c0,3.2,2.6,5.8,5.8,5.8c3.2,0,5.8-2.6,5.8-5.8V74.5
			C87.1,71.3,84.6,68.8,81.4,68.8z"/>
		<path class="st3" d="M111.1,68.8c-3.2,0-5.8,2.6-5.8,5.8v118.5c0,3.2,2.6,5.8,5.8,5.8c3.2,0,5.8-2.6,5.8-5.8V74.5
			C116.9,71.3,114.3,68.8,111.1,68.8z"/>
		<path class="st4" d="M113.1,54.4H19.9c-1.7,0-3.1,1.4-3.1,3.1c0,1.7,1.4,3.1,3.1,3.1h93.1c1.7,0,3.1-1.4,3.1-3.1
			C116.2,55.8,114.8,54.4,113.1,54.4z"/>
		<path class="st5" d="M18.4,193.1V74.5c0-2.8,2-5.2,4.7-5.7c-0.4-0.1-0.7-0.1-1.1-0.1c-3.2,0-5.8,2.6-5.8,5.8v118.5
			c0,3.2,2.6,5.8,5.8,5.8c0.4,0,0.7,0,1.1-0.1C20.4,198.2,18.4,195.9,18.4,193.1z"/>
		<path class="st4" d="M25.5,193.1V74.5c0-2.8-2-5.2-4.7-5.7c0.4-0.1,0.7-0.1,1.1-0.1c3.2,0,5.8,2.6,5.8,5.8v118.5
			c0,3.2-2.6,5.8-5.8,5.8c-0.4,0-0.8,0-1.1-0.1C23.5,198.2,25.5,195.9,25.5,193.1z"/>
		<path class="st5" d="M48.1,193.1V74.5c0-2.8,2-5.2,4.7-5.7c-0.4-0.1-0.7-0.1-1.1-0.1c-3.2,0-5.8,2.6-5.8,5.8v118.5
			c0,3.2,2.6,5.8,5.8,5.8c0.4,0,0.8,0,1.1-0.1C50.1,198.2,48.1,195.9,48.1,193.1z"/>
		<path class="st4" d="M55.2,193.1V74.5c0-2.8-2-5.2-4.7-5.7c0.4-0.1,0.7-0.1,1.1-0.1c3.2,0,5.8,2.6,5.8,5.8v118.5
			c0,3.2-2.6,5.8-5.8,5.8c-0.4,0-0.8,0-1.1-0.1C53.2,198.2,55.2,195.9,55.2,193.1z"/>
		<path class="st5" d="M77.8,193.1V74.5c0-2.8,2-5.2,4.7-5.7c-0.4-0.1-0.7-0.1-1.1-0.1c-3.2,0-5.8,2.6-5.8,5.8v118.5
			c0,3.2,2.6,5.8,5.8,5.8c0.4,0,0.7,0,1.1-0.1C79.8,198.2,77.8,195.9,77.8,193.1z"/>
		<path class="st4" d="M84.9,193.1V74.5c0-2.8-2-5.2-4.7-5.7c0.4-0.1,0.7-0.1,1.1-0.1c3.2,0,5.8,2.6,5.8,5.8v118.5
			c0,3.2-2.6,5.8-5.8,5.8c-0.4,0-0.8,0-1.1-0.1C82.9,198.2,84.9,195.9,84.9,193.1z"/>
		<path class="st5" d="M107.5,193.1V74.5c0-2.8,2-5.2,4.7-5.7c-0.4-0.1-0.7-0.1-1.1-0.1c-3.2,0-5.8,2.6-5.8,5.8v118.5
			c0,3.2,2.6,5.8,5.8,5.8c0.4,0,0.8,0,1.1-0.1C109.5,198.2,107.5,195.9,107.5,193.1z"/>
		<path class="st4" d="M114.6,193.1V74.5c0-2.8-2-5.2-4.7-5.7c0.4-0.1,0.7-0.1,1.1-0.1c3.2,0,5.8,2.6,5.8,5.8v118.5
			c0,3.2-2.6,5.8-5.8,5.8c-0.4,0-0.8,0-1.1-0.1C112.6,198.2,114.6,195.9,114.6,193.1z"/>
	</g>
	<g>
		<path class="st1" d="M29.9,219.4v3.9c0,1.7,1.3,3,3,3h6.5c1.7,0,3-1.3,3-3v-3.9H29.9z"/>
		<path class="st1" d="M103.1,219.4v3.9c0,1.7-1.3,3-3,3h-6.5c-1.7,0-3-1.3-3-3v-3.9H103.1z"/>
	</g>
	<path class="st1" d="M89.9,1.3H43.1c-1.6,0-2.9,1.3-2.9,2.9c0,1.6,1.3,2.9,2.9,2.9h46.8c1.6,0,2.9-1.3,2.9-2.9
		C92.8,2.6,91.5,1.3,89.9,1.3z"/>
</g>
</svg>
